<?xml version="1.0" encoding="iso-8859-1"?>
<!-- Generator: Adobe Illustrator 24.0.1, SVG Export Plug-In . SVG Version: 6.00 Build 0)  -->
<svg version="1.1" id="Camada_1" xmlns="http://www.w3.org/2000/svg" xmlns:xlink="http://www.w3.org/1999/xlink" x="0px" y="0px"
	 viewBox="0 0 374 374" style="enable-background:new 0 0 374 374;" xml:space="preserve">
<path style="fill:#F1A950;" d="M140.482,240.607"/>
<path style="fill:#F1A950;" d="M171.554,237.018"/>
<path style="fill:#FEFEFE;" d="M0.939-0.917c0,122.916,0,245.832,0,368.748c0,5.236,0.002,5.238,5.237,5.238
	c122.913,0,245.827,0,368.74,0c-0.673,1.546-2.021,0.699-2.992,0.702c-18.449,0.063-36.899,0.046-55.349,0.046
	c-104.34,0-208.68-0.013-313.019,0.07c-2.804,0.002-3.438-0.632-3.436-3.436C0.202,247.784,0.188,125.117,0.237,2.449
	C0.238,1.355-0.626-0.087,0.939-0.917z"/>
<path style="fill:#F1A950;" d="M217.625,243.607c0,1.23,0,2.46,0,3.69c-1.279,0-2.558,0-3.837,0c0-0.69,0-1.379,0-2.069
	c-0.462,0.272-1.119,0.623-1.944,0.948c-3.32,1.308-6.25,0.968-7.023,0.86c-1.174-0.164-3.776-0.558-6.124-2.463
	c-4.097-3.324-4.235-8.663-4.268-9.966c-0.038-1.462,0.02-7.617,4.631-11.148c2.198-1.683,4.528-2.08,5.68-2.261
	c3.816-0.603,6.883,0.529,8.262,1.144c0.857,0.54,1.907,1.336,2.912,2.483c0.484,0.553,0.879,1.096,1.199,1.598
	c-0.403,0.358-0.807,0.716-1.21,1.074c-0.623,0.499-1.245,0.998-1.868,1.497c-0.262-0.41-0.723-1.05-1.445-1.673
	c-2.047-1.764-5-2.356-7.581-1.66c-0.501,0.135-1.681,0.453-2.829,1.396c-2.825,2.32-3.831,7.208-2.264,10.992
	c0.245,0.592,1.802,3.897,5.428,4.76c2.417,0.576,5.407-0.024,7.19-2.068c0.682-0.782,1.035-1.601,1.226-2.183
	c0-0.033,0.005-0.49,0.005-0.523c0-0.016,0.004-0.346,0.004-0.362c-0.71-0.005-1.424-0.012-2.141-0.009
	c-0.98,0.003-1.961,0.006-2.941,0.009c0.001-0.604,0.002-1.208,0.002-1.812c-0.001-0.641-0.002-1.283-0.002-1.924
	c1.053-0.002,2.106-0.004,3.158-0.006c1.927,0.002,3.854,0.004,5.781,0.006C217.625,237.161,217.625,240.384,217.625,243.607z"/>
<path style="fill:#F1A950;" d="M300.313,244.625c-2.838,3.891-10.951,3.532-16.473,1.205c-1.233-0.52-2.162-1.064-2.652-1.366
	c0.334-0.733,0.731-1.516,1.205-2.33c0.322-0.553,0.649-1.067,0.972-1.542c0.801,0.407,1.602,0.814,2.403,1.221
	c1.377,0.492,2.558,0.764,3.417,0.923c1.991,0.368,3.141,0.285,3.456,0.268c1.606-0.09,3.122-0.43,3.505-2.157
	c0.118-0.531,0.084-0.978-0.058-1.359c-0.398-1.061-1.679-1.564-2.409-1.837c0,0-2.393-0.897-5.661-2.346
	c-2.48-1.099-3.832-1.72-4.821-3.214c-1.005-1.518-1.076-3.089-1.072-3.683c0.021-3.265,2.471-5.248,2.881-5.57
	c0.913-0.719,2.02-1.232,3.289-1.47c5.304-0.993,9.54,0.837,10.182,1.182c1.022,0.548,1.779,1.126,2.238,1.506
	c-0.26,0.482-0.52,0.964-0.781,1.447c-0.356,0.643-0.712,1.286-1.068,1.928c-0.658-0.435-1.461-0.889-2.411-1.286
	c-1.906-0.796-3.645-1.041-4.896-1.107c-0.241,0.006-2.547,0.088-3.579,1.509c-0.411,0.567-0.529,1.175-0.529,1.175
	c-0.11,0.6-0.047,1.127,0.152,1.575c0.373,0.84,1.178,1.237,1.552,1.414c2.368,1.12,5.205,1.907,7.058,2.666
	c2.029,0.831,3.953,1.618,4.966,3.54c0.993,1.883,0.521,4.041,0.395,4.667C301.509,241.911,301.181,243.435,300.313,244.625z"/>
<path style="fill:#F1A951;" d="M84.795,221.08c2.946,0,5.893,0,8.839,0c0.697,0,1.393,0,2.09,0c0,0.765,0.001,1.529,0.001,2.294
	c0,0.767-0.001,1.533-0.001,2.3c-0.744,0.001-1.488,0.003-2.232,0.004c-2.142,0.001-4.285,0.002-6.427,0.002
	c-0.001,2.422-0.001,4.844-0.002,7.266c0.006,3.987,0.013,7.974,0.019,11.961c0.001,0.852,0.002,1.704,0.003,2.556
	c-0.877-0.001-1.753-0.001-2.63-0.002c-0.86,0.001-1.72,0.001-2.58,0.002c0-0.875,0-1.75,0-2.625
	c0.035-4.983,0.069-9.965,0.103-14.948c0.001-1.444,0.003-2.888,0.004-4.332c-1.451,0-2.923,0-4.375,0.002
	c-1.258,0.001-2.724,0.003-3.983,0.005c0-0.455-0.001-0.909-0.001-1.364c0-1.028,0.001-2.055,0.001-3.083
	c0.788-0.001,1.576-0.002,2.365-0.003C78.925,221.105,81.86,221.093,84.795,221.08z"/>
<path style="fill:#F1A950;" d="M157.236,234.081c-0.011-3.476-0.022-6.952-0.033-10.428c-0.002-0.849-0.004-1.698-0.006-2.546
	c0.874-0.001,1.747-0.002,2.621-0.003c0.876,0.001,1.753,0.002,2.629,0.003c0,0.857,0,1.714,0,2.571c0,5.429,0,10.857,0,16.286
	c0,1,0,2,0,3c1.403,0.005,2.548,0.002,3.317,0c3.108-0.011,4.575-0.056,7.818-0.054c0.77,0,1.541,0.001,2.311,0.001
	c-0.002,0.693-0.004,1.387-0.005,2.08c0.002,0.807,0.004,1.613,0.005,2.42c-0.778,0.008-1.556,0.016-2.334,0.024
	c-4.593,0.003-9.186,0.005-13.78,0.008c-0.861,0.007-1.722,0.014-2.583,0.022c0.002-0.861,0.004-1.722,0.006-2.582
	C157.214,241.282,157.225,237.682,157.236,234.081z"/>
<path style="fill:#2D99A5;" d="M247.072,174.39c-20.782-32.635-26.74-43.099-34.142-53.1c-0.296-0.4-2.815-3.81-6.817-5.556
	c-1.59-0.694-2.875-0.89-3.97-0.885c-0.913,0.004-2.238,0.151-3.965,0.923c-3.768,1.685-6.154,4.821-6.614,5.546
	c-6.357,10.021-19.907,31.429-22.971,36.25c-0.226,0.355-1.984,3.115-4.392,6.921c-3.396,5.367-2.944,4.692-3.307,5.242
	c-1.873,2.832-2.43,3.449-3.242,5.172c-0.745,1.582-1.393,2.955-1.537,4.921c-0.181,2.451,0.53,4.327,0.881,5.226
	c0.331,0.846,1.056,2.681,2.807,4.365c1.934,1.86,4.476,2.899,7.379,3.29c2.038,0.274,3.9,0.068,5.57-0.568
	c3.216-1.226,5.006-3.818,5.822-5.033c2.765-4.123,11.927-17.977,24.114-37.164c0.565,0.841,1.131,1.655,1.669,2.488
	c7.434,11.505,14.83,23.035,22.31,34.509c3.318,5.089,8.034,6.858,13.49,5.307C248.704,189.815,251.862,181.911,247.072,174.39z
	 M201.903,137.424c-10.406,15.862-20.811,31.723-31.217,47.585c-0.377,0.251-1.212,0.732-2.37,0.79
	c-1.648,0.082-2.81-0.75-3.133-0.999c-1.039-0.706-2.098-1.728-2.35-3.119c-0.321-1.772,0.835-3.312,1.136-3.789
	c11.072-17.58,22.17-35.143,33.356-52.65c3.193-4.997,7.505-4.331,10.757,1.461C207.716,131.252,205.096,134.503,201.903,137.424z
	 M239.985,185.054c-0.629,0.397-2.393,1.493-4.509,0.886c-1.797-0.516-2.721-1.939-2.971-2.356
	c-8.715-13.608-17.429-27.217-26.144-40.825c0.79-1.313,1.58-2.625,2.37-3.938c1.168-1.941,2.335-3.881,3.503-5.822
	c9.688,14.907,19.407,29.795,29.042,44.736C243.391,181.015,242.873,183.233,239.985,185.054z"/>
<path style="fill:#F1A850;" d="M161.054,146.429c-5.784-8.761-11.568-17.523-17.351-26.284c-5.432-4.846-12.451-5.982-17.147-3.112
	c-0.367,0.225-4.163,2.669-5.091,7.191c-0.579,2.824,0.103,5.926,2.142,9.097c11.101,17.262,22.255,34.49,33.389,51.732
	c-0.376-1.055-0.937-3.062-0.683-5.597c0.252-2.515,1.188-4.36,1.763-5.319c-9.632-14.824-19.288-29.633-28.877-44.485
	c-1.971-3.053-1.46-5.215,1.315-7.002c2.842-1.831,5.785-1.312,7.746,1.682c6.754,10.311,13.414,20.684,20.102,31.038
	c1.959,3.033,3.893,6.081,5.839,9.122c0,0,0,0,0,0c1.464-2.307,2.928-4.614,4.392-6.921
	C166.079,153.855,163.567,150.142,161.054,146.429z"/>
<path style="fill:#F0A951;" d="M212.234,132.999c-1.958,3.253-3.915,6.506-5.873,9.76c-0.658-0.953-1.317-1.906-1.975-2.859
	c-0.705-1.061-1.276-1.868-1.597-2.29c-0.098-0.129-0.285-0.367-0.532-0.362c-0.156,0.003-0.279,0.102-0.351,0.175
	c1.19-1.836,2.273-3.521,3.238-5.03c2.532-3.96,0.008-0.076,1.16-1.928c0.621-1,1.303-2.045,1.465-3
	c0.141-0.832-0.13-1.488-0.145-1.518c-0.001-0.002-0.033-0.065-0.031-0.066c0,0,0.001,0.002,0.004,0.006
	c0.84,1.315,1.695,2.637,2.563,3.965C210.85,130.91,211.543,131.959,212.234,132.999z"/>
<path style="fill:#C4AA6E;" d="M165.868,185.303c1.605-0.097,3.211-0.194,4.817-0.293
	C169.08,185.108,167.474,185.206,165.868,185.303z"/>
<path style="fill:#F1A950;" d="M128.407,223.297c-0.258-0.73-0.516-1.46-0.772-2.19c-0.716,0-1.434,0.002-2.152,0.004
	c-0.863,0.002-1.725,0.005-2.585,0.01c-0.209,0.603-0.419,1.206-0.628,1.809c-3.072,8.072-6.143,16.145-9.215,24.217
	c1.71,0.003,3.419,0.006,5.129,0.01c0.79-2.129,1.58-4.259,2.371-6.388c3.147,0,6.295,0,9.442,0
	c0.871,2.156,1.741,4.313,2.612,6.469c1.545,0,3.089,0,4.634,0C134.218,239.368,131.271,231.389,128.407,223.297z M124.933,236.71
	c-1.018,0-2.036,0-3.054,0c1.117-3.277,2.235-6.554,3.352-9.831c1.2,3.277,2.399,6.554,3.599,9.831
	C127.531,236.71,126.232,236.71,124.933,236.71z"/>
<path style="fill:#F1A950;" d="M261.269,243.607c0,1.23,0,2.46,0,3.69c-1.279,0-2.558,0-3.837,0c0-0.69,0-1.379,0-2.069
	c-0.462,0.272-1.119,0.623-1.944,0.948c-3.32,1.308-6.25,0.968-7.023,0.86c-1.174-0.164-3.776-0.558-6.124-2.463
	c-4.097-3.324-4.235-8.663-4.268-9.966c-0.038-1.462,0.02-7.617,4.631-11.148c2.198-1.683,4.528-2.08,5.68-2.261
	c3.816-0.603,6.883,0.529,8.262,1.144c0.857,0.54,1.907,1.336,2.912,2.483c0.484,0.553,0.879,1.096,1.199,1.598
	c-0.403,0.358-0.807,0.716-1.21,1.074c-0.623,0.499-1.245,0.998-1.868,1.497c-0.262-0.41-0.723-1.05-1.445-1.673
	c-2.047-1.764-5-2.356-7.581-1.66c-0.501,0.135-1.681,0.453-2.829,1.396c-2.825,2.32-3.831,7.208-2.264,10.992
	c0.245,0.592,1.802,3.897,5.428,4.76c2.417,0.576,5.407-0.024,7.19-2.068c0.682-0.782,1.035-1.601,1.226-2.183
	c0-0.033,0.005-0.49,0.005-0.523c0-0.016,0.004-0.346,0.004-0.362c-0.71-0.005-1.424-0.012-2.141-0.009
	c-0.98,0.003-1.961,0.006-2.941,0.009c0.001-0.604,0.002-1.208,0.002-1.812c-0.001-0.641-0.002-1.283-0.002-1.924
	c1.053-0.002,2.106-0.004,3.158-0.006c1.927,0.002,3.854,0.004,5.781,0.006C261.269,237.161,261.269,240.384,261.269,243.607z"/>
<path style="fill:#F1A950;" d="M241.357,231.821"/>
<path style="fill:#F1A950;" d="M-1118.071-182.714"/>
</svg>
