<?xml version="1.0" encoding="iso-8859-1"?>
<!-- Generator: Adobe Illustrator 24.0.1, SVG Export Plug-In . SVG Version: 6.00 Build 0)  -->
<svg version="1.1" xmlns="http://www.w3.org/2000/svg" xmlns:xlink="http://www.w3.org/1999/xlink" x="0px" y="0px"
	 viewBox="0 0 387 141.429" style="enable-background:new 0 0 387 141.429;" xml:space="preserve">
<g id="Camada_1">
	<g>
		<path style="fill:#F2A950;" d="M44.625,97.942c0.393-2.207,1.334-3.788,1.915-4.622c-0.129-0.196-3.273-4.998-3.401-5.193
			c-0.974-1.487-8.535-13.029-9.509-14.515c-3.005-4.593-6.011-9.185-9.016-13.778c-2.854-4.076-5.035-7.52-6.601-10.112
			c-0.736-1.218-1.877-3.1-1.255-4.939c0.521-1.541,2.048-2.383,2.591-2.682c0.617-0.34,2.027-1.117,3.837-0.743
			c1.93,0.399,2.972,1.829,3.214,2.182c1.253,1.891,2.505,3.781,3.758,5.672c2.598,3.983,5.197,7.965,7.795,11.948
			c1.585,2.438,10.385,15.968,11.97,18.405c0.088,0.136,2.661,4.089,2.748,4.224c0.737-1.123,1.475-2.251,2.212-3.384
			c0.721-1.107,1.437-2.211,2.149-3.314c-4.246-5.853-7.548-10.713-9.785-14.078c-6.713-10.103-9.945-15.23-11.164-17.093
			c-1.409-2.153-2.83-4.298-4.277-6.425c-3.51-5.159-10.932-6.4-16.223-3.061c-5.765,3.638-7.668,9.759-4.114,15.301
			c10.984,17.129,22.208,34.107,33.339,51.143C44.559,101.898,44.238,100.116,44.625,97.942z"/>
		<path style="fill:#F2A950;" d="M291.345,80.6c0.001-3.277,0.001-6.554,0.002-9.831c-2.431-0.003-4.863-0.006-7.295-0.009
			c-0.913-0.002-1.826-0.003-2.739-0.005c-0.001,0.849-0.002,1.697-0.003,2.546c0.001,0.974,0.002,1.948,0.003,2.922
			c0.838,0,1.675,0.001,2.513,0.001c0.989,0,1.977-0.001,2.966-0.001c0,0.451,0.001,0.902,0.001,1.353
			c-0.269,0.929-0.821,2.458-1.926,3.802c-2.898,3.523-6.776,2.339-7.051,2.249c-2.276-0.748-3.668-2.704-4.08-3.32
			c-3.373-5.036-3.246-13.925,0.266-18.7c1.956-2.66,5.244-3.426,7.805-2.496c1.591,0.578,2.811,1.829,2.991,2.017
			c1.157,1.207,1.836,2.55,2.197,3.394c0.743-1.004,1.486-2.008,2.229-3.013c0.399-0.54,0.798-1.079,1.197-1.618
			c-0.448-0.939-1.163-2.227-2.238-3.446c-4.012-4.548-10.995-5.814-16.218-1.279c-6.208,5.391-7.736,17.114-4.327,25.828
			c3.449,8.816,12.701,10.727,17.318,7.083c0.54-0.426,0.973-0.894,1.311-1.318c0,1.099,0,2.199,0,3.298c0.418,0,0.837,0,1.255,0
			c0.928,0.005,1.859,0.006,2.794,0.004c0.348-0.001,0.696-0.002,1.044-0.004c-0.001-1.027-0.005-3.596-0.007-4.645
			C291.352,84.181,291.345,81.603,291.345,80.6z"/>
		<path style="fill:#F2A950;" d="M379.844,74.905c-1.441-3.827-4.437-4.849-4.922-5.003c-0.444-0.181-4.965-2.027-7.677-3.618
			c-0.489-0.287-1.32-0.797-1.725-1.939c-0.346-0.977-0.251-1.899-0.212-2.241c0.038-0.339,0.132-1.112,0.562-1.824
			c0.619-1.027,1.549-1.29,2.173-1.466c0.21-0.059,0.371-0.086,0.556-0.117c0.765-0.127,1.4-0.102,1.832-0.057
			c1.115,0,2.818,0.209,4.663,1.33c0.784,0.476,1.439,1.023,1.969,1.543c0.38-0.906,0.761-1.813,1.141-2.719
			c0.309-0.759,0.618-1.517,0.927-2.276c-0.501-0.587-1.269-1.401-2.297-2.16c-3.661-2.705-7.248-2.239-8.56-2.044
			c-1.205,0.179-2.686,0.418-4.363,1.656c-1.292,0.953-2.181,2.115-2.725,2.947c-0.618,1.303-1.742,4.121-1.552,7.71
			c0.048,0.913,0.138,2.386,0.795,3.974c1.23,2.971,3.462,3.965,4.108,4.219c2.385,1.062,4.77,2.125,7.155,3.187
			c1.364,0.267,2.474,1.341,2.825,2.766c0.259,1.052,0.076,2.124,0.076,2.124c-0.006,0.035-0.15,0.845-0.533,1.515
			c-1.016,1.776-3.116,1.513-3.247,1.494c-0.152,0.012-0.384,0.026-0.666,0.028c0,0-0.914,0.004-1.885-0.176
			c-2.094-0.389-3.683-1.246-5.153-2.053c-0.921-0.506-1.66-0.979-2.147-1.304c-0.29,0.851-0.584,1.705-0.882,2.562
			c-0.367,1.056-0.734,2.102-1.102,3.139c0.685,0.444,1.37,0.887,2.054,1.331c3.588,2.172,6.693,2.831,8.718,3.043
			c2.5,0.262,4.746,0.456,6.883-1.365c1.608-1.37,2.52-3.339,2.669-3.667c0.328-0.723,0.905-2.104,1.116-4.001
			C380.525,80.491,380.902,77.714,379.844,74.905z"/>
		<path style="fill:#F2A950;" d="M194.988,52.312c-0.361,0.001-1.871,0.006-2.232,0.007c-0.505,0.001-2.174,0.006-2.679,0.007
			c-0.242,0.865-0.484,1.73-0.727,2.595c-3.244,11.588-6.488,23.176-9.733,34.764c1.847,0.001,3.694,0.002,5.541,0.003
			c0.423-1.524,0.846-3.047,1.27-4.571c0.428-1.668,0.856-3.336,1.284-5.005c3.215,0.003,6.43,0.006,9.644,0.01
			c0.393,1.539,0.801,3.096,1.225,4.67c0.444,1.649,0.892,3.268,1.343,4.858c1.764-0.002,3.529-0.003,5.293-0.005
			c-2.961-11.346-6.07-22.746-9.332-34.196C195.588,54.403,195.288,53.357,194.988,52.312z M188.611,75.138l3.956-14.307
			l3.77,14.321L188.611,75.138z"/>
		<path style="fill:#F2A950;" d="M158.723,52.345c-4.851-0.004-5.924,0.046-9.527,0.03c-6.082-0.042-7.13-0.037-9.129-0.046
			c-1.017-0.005-1.851-0.011-2.403-0.016c0.008,1.627,0.01,3.265,0.007,4.913c-0.001,0.743-0.004,1.484-0.007,2.223
			c1.449,0.012,2.914,0.013,4.394,0c1.519-0.013,3.022-0.039,4.508-0.077c0,1.766-0.002,3.534-0.005,5.304
			c-0.013,7.318-0.049,14.602-0.109,21.851c0,1.267,0,2.533,0,3.799c0.936-0.005,1.872-0.009,2.808-0.014
			c0.871,0.005,1.742,0.009,2.613,0.014c0-1.241,0-2.482,0-3.722c0.002-4.848,0.008-12.389,0.014-17.237
			c0.002-1.934,0.01-8.147,0.012-10.08c2.284,0.003,4.567,0.005,6.851,0.008c0.742,0,1.484,0,2.226,0
			c-0.004-1.226-0.008-2.452-0.013-3.679c0.004-1.088,0.008-2.176,0.013-3.264C160.506,52.349,159.709,52.346,158.723,52.345z"/>
		<path style="fill:#F2A950;" d="M243.975,83.721c-3.182,0.022-6.365,0.043-9.547,0.065c-0.778-0.005-1.555-0.01-2.332-0.015
			c-0.001-1.027-0.001-2.054-0.002-3.082c0.01-4.118,0.018-8.241,0.023-12.37c0.006-4.309,0.008-8.611,0.009-12.907
			c0.001-1.023,0.002-2.047,0.002-3.07c-0.938,0.001-1.876,0.002-2.814,0.002c-0.91-0.001-1.819-0.002-2.729-0.002
			c0,1.034-0.001,2.069-0.001,3.103c0.016,10.565,0.018,21.142,0.008,31.732c0,0.456-0.003,2.616-0.003,3.072
			c0.778,0.002,1.556,0.004,2.334,0.007c5.039-0.003,10.079-0.006,15.118-0.009c0.803,0.001,1.605,0.002,2.408,0.002
			c0.001-1.011,0.003-2.022,0.004-3.033c-0.001-1.168-0.003-2.337-0.004-3.505C245.625,83.714,244.8,83.717,243.975,83.721z"/>
		<path style="fill:#F2A950;" d="M337.687,81.155c0.001-3.277,0.001-6.554,0.002-9.831c-2.432-0.003-4.863-0.006-7.295-0.009
			c-0.913-0.002-1.826-0.003-2.739-0.005c-0.001,0.849-0.002,1.697-0.003,2.546c0.001,0.974,0.002,1.948,0.003,2.922
			c0.838,0,1.675,0.001,2.513,0.001c0.989,0,1.977-0.001,2.966-0.001c0,0.451,0.001,0.902,0.001,1.353
			c-0.269,0.928-0.82,2.457-1.926,3.802c-2.898,3.523-6.776,2.339-7.051,2.249c-2.276-0.748-3.668-2.704-4.081-3.32
			c-3.373-5.036-3.246-13.925,0.266-18.7c1.956-2.66,5.244-3.426,7.805-2.496c1.591,0.578,2.811,1.829,2.991,2.017
			c1.157,1.207,1.836,2.55,2.197,3.394c0.743-1.004,1.486-2.009,2.229-3.013c0.399-0.539,0.798-1.079,1.197-1.618
			c-0.448-0.939-1.163-2.227-2.238-3.446c-4.012-4.548-10.995-5.814-16.218-1.279c-6.208,5.391-7.736,17.114-4.327,25.828
			c3.449,8.816,12.701,10.727,17.318,7.083c0.54-0.426,0.973-0.894,1.311-1.318c0,1.099,0,2.199,0,3.298c0.419,0,0.837,0,1.255,0
			c0.928,0.005,1.859,0.006,2.794,0.004c0.348-0.001,0.696-0.002,1.044-0.004c-0.001-1.027-0.005-3.597-0.007-4.645
			C337.694,84.736,337.687,82.158,337.687,81.155z"/>
		<path style="fill:#A6E3F1;" d="M135.365,93.479c-11.328-17.496-22.815-34.893-34.019-52.468c-0.016-0.025-0.04-0.063-0.072-0.112
			c-0.609-0.942-2.491-3.768-6.016-5.334c-0.779-0.346-1.955-0.771-3.487-0.974c-0.481-0.066-1.139-0.133-1.924-0.139
			c-0.61-0.005-1.334-0.007-2.244,0.159c-0.238,0.043-1.121,0.213-2.204,0.676c-0.76,0.324-1.888,0.907-3.058,1.946
			c-0.804,1.222-1.608,2.444-2.412,3.666C61.306,70.475,53.812,82.207,52.282,84.397c-0.138,0.197-0.975,1.387-2.062,3.03
			c-0.843,1.274-1.723,2.656-2.919,4.591c-0.385,0.622-0.72,1.183-1.141,1.89c-0.453,0.76-2.55,4.461-1.348,8.969
			c0.903,3.387,3.157,5.31,3.937,5.955c1.953,1.615,4.427,2.554,7.345,2.834c5.268,0.505,8.894-2.229,11.61-6.533
			c6.91-10.949,13.903-21.847,20.875-32.758c0.679-1.063,1.449-2.069,2.31-3.291c0.869,1.29,1.499,2.199,2.102,3.124
			c7.142,10.953,14.299,21.896,21.409,32.869c2.32,3.581,5.193,6.321,9.715,6.608c5.161,0.328,9.273-1.781,11.954-6.06
			C138.616,101.562,137.914,97.417,135.365,93.479z M90.088,57.058c-9.483,15.021-18.966,30.043-28.449,45.064
			c-0.136,0.213-0.338,0.513-0.608,0.853c-0.619,0.782-1.446,1.825-2.565,2.278c-1.828,0.741-3.79-0.358-4.382-0.689
			c-0.538-0.301-1.848-1.059-2.58-2.666c-0.915-2.01-0.266-3.9-0.092-4.381c0.279-0.772,0.641-1.276,0.748-1.431
			c3.797-5.475,7.208-11.21,10.992-16.695c0.9-1.305,2.289-3.34,3.964-5.893c8.989-13.525,15.547-23.454,18.543-28.485
			c0.667-1.12,2.523-4.204,4.923-4.243c1.559-0.025,2.955,1.407,3.644,2.086c1.261,1.243,1.876,2.585,2.174,3.398
			C93.734,50.858,91.615,54.639,90.088,57.058z M128.265,104.093c-2.873,1.794-5.69,1.247-7.683-1.786
			c-6.842-10.412-13.606-20.875-20.375-31.335c-1.873-2.895-3.661-5.844-5.488-8.768c0.941-1.581,1.883-3.162,2.824-4.743
			c0.497-0.815,1.002-1.636,1.516-2.461c0.505-0.81,1.01-1.611,1.515-2.402c9.742,14.847,19.518,29.673,29.199,44.559
			C131.677,100.085,131.029,102.367,128.265,104.093z"/>
		<path style="fill:#F2A950;" d="M90.709,56.797c0.304,0.006,0.58,0.181,0.715,0.452c1.116,1.647,2.232,3.294,3.348,4.942
			c1.952-3.202,3.903-6.404,5.855-9.606c-0.702-1.072-1.406-2.166-2.109-3.284c-0.875-1.389-1.717-2.764-2.529-4.121
			c0.081,0.213,0.163,0.425,0.244,0.638c0.036,0.257,0.013,0.461-0.013,0.596c-0.052,0.263-0.156,0.466-0.278,0.702
			c-0.051,0.1-0.099,0.182-0.194,0.345c-0.135,0.233-0.241,0.401-0.259,0.43c-0.373,0.597-1.381,2.363-1.381,2.363
			c-3.254,5.249-4.202,6.908-4.128,6.955C90.02,57.234,90.294,56.789,90.709,56.797z"/>
	</g>
</g>
<g id="Camada_2">
</g>
</svg>
